<svg id="icon" xmlns="http://www.w3.org/2000/svg" viewBox="0 0 16 16">
  <defs>
    <style>
      .cls-1 {
        fill: none;
      }
    </style>
  </defs>
  <path d="M14.611,8.982,12.96,8.605A4.889,4.889,0,0,0,12.2,5.293l1.27-1.013L12.844,3.5,11.574,4.51A4.987,4.987,0,0,0,8.5,3.025V1.5h-1V3.025A4.987,4.987,0,0,0,4.426,4.51L3.156,3.5l-.623.782L3.8,5.293A4.889,4.889,0,0,0,3.04,8.605l-1.651.377.222.975L3.26,9.58a5.018,5.018,0,0,0,2.134,2.679l-.665,1.382.9.434L6.3,12.694a4.9,4.9,0,0,0,3.41,0l.665,1.381.9-.434-.665-1.382A5.014,5.014,0,0,0,12.74,9.58l1.649.377ZM12,8c0,.129-.007.256-.019.381l-2.5-.57a1.517,1.517,0,0,0-.069-.3l2-1.593A3.967,3.967,0,0,1,12,8ZM7.5,8a.5.5,0,1,1,.5.5A.5.5,0,0,1,7.5,8Zm3.288-2.863-2,1.593a1.542,1.542,0,0,0-.29-.138V4.035A3.986,3.986,0,0,1,10.788,5.137ZM7.5,4.035V6.592a1.542,1.542,0,0,0-.29.138l-2-1.593A3.986,3.986,0,0,1,7.5,4.035ZM4,8a3.967,3.967,0,0,1,.59-2.08l2,1.593a1.524,1.524,0,0,0-.069.3l-2.5.571C4.007,8.256,4,8.129,4,8Zm.242,1.356,2.487-.568a1.5,1.5,0,0,0,.208.268l-1.107,2.3A4.017,4.017,0,0,1,4.242,9.356ZM8,12a4,4,0,0,1-1.27-.21L7.84,9.484c.053.008.107.013.16.016s.107-.008.16-.016L9.27,11.79A4,4,0,0,1,8,12Zm2.17-.645-1.107-2.3a1.5,1.5,0,0,0,.208-.268l2.487.568A4.017,4.017,0,0,1,10.17,11.355Z"/>
  <rect id="_Transparent_Rectangle_" data-name=" Transparent Rectangle " class="cls-1" width="16" height="16"/>
</svg>
